<svg id="visual" viewBox="0 0 1500 800" width="1500" height="800" xmlns="http://www.w3.org/2000/svg" xmlns:xlink="http://www.w3.org/1999/xlink" version="1.1"><rect width="1500" height="800" fill="#0066FF"></rect><g><g transform="translate(1243 775)"><path d="M122.9 -35.7C139 9.5 117.7 71.1 77.2 98.7C36.8 126.4 -22.9 120 -65.5 89.3C-108 58.6 -133.5 3.5 -119.7 -38.5C-106 -80.6 -53 -109.5 0.2 -109.6C53.4 -109.6 106.9 -80.9 122.9 -35.7Z" fill="#FFFFFF"></path></g><g transform="translate(72 258)"><path d="M68.7 -21.2C77.6 5 65.4 39.2 41.8 56C18.2 72.8 -16.9 72.2 -40.9 55.1C-64.9 38 -77.8 4.3 -69.1 -21.7C-60.4 -47.6 -30.2 -65.7 -0.2 -65.7C29.9 -65.6 59.8 -47.4 68.7 -21.2Z" fill="#FFFFFF"></path></g><g transform="translate(789 665)"><path d="M86.8 -27.3C97.1 3.4 79.4 44.2 48.7 66.3C18.1 88.3 -25.5 91.7 -52 72.3C-78.4 52.9 -87.7 10.7 -76.2 -21.7C-64.6 -54.2 -32.3 -76.9 3 -77.8C38.3 -78.8 76.5 -58.1 86.8 -27.3Z" fill="#FFFFFF"></path></g><g transform="translate(1399 297)"><path d="M50.4 -17.6C57.8 6.2 50.9 33.4 32.1 47.9C13.3 62.5 -17.4 64.3 -37.2 50.2C-57 36 -66 5.8 -58 -18.9C-50 -43.6 -25 -62.9 -1.7 -62.3C21.5 -61.7 43.1 -41.4 50.4 -17.6Z" fill="#FFFFFF"></path></g><g transform="translate(493 307)"><path d="M64.9 -23.8C73.1 4.3 61.3 36.2 38.1 53.2C14.9 70.3 -19.7 72.5 -42.6 56.4C-65.4 40.3 -76.6 5.9 -67.6 -23.3C-58.5 -52.4 -29.3 -76.3 -0.5 -76.2C28.3 -76 56.6 -51.8 64.9 -23.8Z" fill="#FFFFFF"></path></g><g transform="translate(972 260)"><path d="M73 -21.2C83.6 8.8 73.6 48.1 48 66.9C22.4 85.6 -18.6 83.9 -45.1 64.2C-71.5 44.4 -83.4 6.8 -73.4 -22.4C-63.5 -51.6 -31.7 -72.3 -0.3 -72.2C31.2 -72.1 62.5 -51.3 73 -21.2Z" fill="#FFFFFF"></path></g><g transform="translate(270 678)"><path d="M103.6 -35.1C115.4 2.5 92.9 49.7 55.5 77C18.1 104.4 -34.3 111.8 -64.4 89.7C-94.5 67.6 -102.4 15.9 -87.9 -25.4C-73.5 -66.6 -36.7 -97.4 4.6 -98.9C45.9 -100.4 91.9 -72.6 103.6 -35.1Z" fill="#FFFFFF"></path></g></g></svg>