<svg id="visual" viewBox="0 0 1536 450" width="1536" height="450" xmlns="http://www.w3.org/2000/svg" xmlns:xlink="http://www.w3.org/1999/xlink" version="1.1"><rect x="0" y="0" width="1536" height="450" fill="#002233"></rect><path d="M0 332L25.7 332.2C51.3 332.3 102.7 332.7 153.8 337.2C205 341.7 256 350.3 307.2 350.2C358.3 350 409.7 341 460.8 332.8C512 324.7 563 317.3 614.2 314.2C665.3 311 716.7 312 768 318.7C819.3 325.3 870.7 337.7 921.8 343.2C973 348.7 1024 347.3 1075.2 348.5C1126.3 349.7 1177.7 353.3 1228.8 347.2C1280 341 1331 325 1382.2 319.2C1433.3 313.3 1484.7 317.7 1510.3 319.8L1536 322L1536 451L1510.3 451C1484.7 451 1433.3 451 1382.2 451C1331 451 1280 451 1228.8 451C1177.7 451 1126.3 451 1075.2 451C1024 451 973 451 921.8 451C870.7 451 819.3 451 768 451C716.7 451 665.3 451 614.2 451C563 451 512 451 460.8 451C409.7 451 358.3 451 307.2 451C256 451 205 451 153.8 451C102.7 451 51.3 451 25.7 451L0 451Z" fill="#0066FF" stroke-linecap="round" stroke-linejoin="miter"></path></svg>